<svg width="1440" height="964" viewBox="0 0 1440 964" fill="none" xmlns="http://www.w3.org/2000/svg">
<ellipse cx="397" cy="701" rx="95" ry="12" fill="black" fill-opacity="0.5"/>
<rect x="436.196" y="603.056" width="45.0309" height="92.9437" rx="3.51536" fill="#00ADB5" stroke="black" stroke-width="1.64486" stroke-linejoin="round"/>
<rect x="318.395" y="629.895" width="45.0309" height="66.1053" rx="3.51536" fill="#EEEEEE" stroke="black" stroke-width="1.64486" stroke-linejoin="round"/>
<rect x="527.338" y="500.026" width="45.0309" height="195.974" rx="3.51536" fill="#00ADB5" stroke="black" stroke-width="1.64486" stroke-linejoin="round"/>
<path d="M378.169 476.169L424.468 476.169C424.468 476.169 417.089 543.602 407.046 554.658C397.004 565.713 344.445 596.034 344.445 596.034L326.744 585.17L359.742 533.203C359.742 533.203 356.113 512.938 378.169 476.169Z" fill="#00ADB5" stroke="black" stroke-width="1.39887"/>
<path d="M345.193 595.426L326.744 585.173L317.407 595.226C317.407 595.226 333.148 604.349 344.129 607.925L339.478 601.79L345.193 595.426Z" fill="#EEEEEE" stroke="black" stroke-width="1.39887" stroke-linejoin="round"/>
<path d="M378.366 475.186L428.953 475.119C428.953 475.119 457.075 499.849 460.618 514.358C464.161 528.868 460.121 581.524 460.121 581.524L439.675 590.564L418.567 534.947C418.567 534.947 396.498 514.041 378.366 475.186Z" fill="#00ADB5"/>
<path d="M378.366 475.186L378.365 474.487C378.126 474.487 377.904 474.609 377.776 474.811C377.648 475.012 377.631 475.265 377.732 475.482L378.366 475.186ZM428.953 475.119L429.415 474.594L429.217 474.42L428.952 474.42L428.953 475.119ZM460.121 581.524L460.403 582.164L460.786 581.995L460.818 581.578L460.121 581.524ZM439.675 590.564L439.021 590.812L439.283 591.502L439.958 591.204L439.675 590.564ZM418.567 534.947L419.221 534.698L419.164 534.549L419.048 534.439L418.567 534.947ZM378.367 475.885L428.954 475.819L428.952 474.42L378.365 474.487L378.367 475.885ZM459.838 580.885L439.392 589.924L439.958 591.204L460.403 582.164L459.838 580.885ZM440.329 590.316L419.221 534.698L417.913 535.195L439.021 590.812L440.329 590.316ZM418.567 534.947C419.048 534.439 419.048 534.439 419.048 534.439C419.048 534.439 419.047 534.439 419.047 534.438C419.047 534.438 419.046 534.437 419.045 534.436C419.042 534.434 419.039 534.43 419.034 534.426C419.024 534.416 419.008 534.401 418.988 534.382C418.947 534.342 418.885 534.283 418.804 534.203C418.641 534.043 418.397 533.802 418.081 533.481C417.448 532.84 416.521 531.877 415.351 530.6C413.011 528.047 409.698 524.234 405.819 519.209C398.061 509.16 388.04 494.263 379 474.89L377.732 475.482C386.823 494.964 396.903 509.948 404.712 520.064C408.617 525.123 411.955 528.965 414.319 531.546C415.502 532.836 416.44 533.81 417.085 534.464C417.407 534.79 417.656 535.037 417.825 535.202C417.91 535.285 417.974 535.347 418.018 535.389C418.04 535.41 418.056 535.426 418.068 535.437C418.073 535.443 418.078 535.447 418.081 535.45C418.082 535.451 418.083 535.452 418.084 535.453C418.085 535.453 418.085 535.454 418.085 535.454C418.085 535.454 418.086 535.454 418.567 534.947ZM428.953 475.119C428.492 475.645 428.492 475.645 428.492 475.645C428.492 475.645 428.492 475.645 428.493 475.646C428.493 475.646 428.495 475.647 428.496 475.649C428.499 475.652 428.504 475.656 428.511 475.662C428.524 475.673 428.544 475.691 428.57 475.714C428.623 475.761 428.702 475.831 428.804 475.922C429.01 476.106 429.312 476.377 429.698 476.728C430.471 477.43 431.58 478.449 432.922 479.718C435.607 482.257 439.222 485.791 442.946 489.775C446.672 493.762 450.497 498.189 453.608 502.514C456.729 506.855 459.086 511.032 459.938 514.524L461.297 514.193C460.379 510.43 457.891 506.075 454.743 501.698C451.585 497.306 447.716 492.83 443.968 488.82C440.219 484.809 436.582 481.254 433.883 478.702C432.534 477.426 431.418 476.4 430.639 475.693C430.249 475.339 429.944 475.065 429.736 474.879C429.632 474.786 429.552 474.715 429.498 474.667C429.471 474.643 429.45 474.625 429.437 474.613C429.43 474.607 429.424 474.602 429.421 474.599C429.419 474.597 429.418 474.596 429.417 474.595C429.416 474.595 429.416 474.595 429.416 474.595C429.415 474.594 429.415 474.594 428.953 475.119ZM459.938 514.524C460.804 518.067 461.216 524.007 461.336 530.986C461.455 537.945 461.282 545.873 460.999 553.356C460.716 560.838 460.322 567.867 459.998 573.026C459.837 575.606 459.693 577.718 459.59 579.184C459.538 579.918 459.496 580.49 459.468 580.878C459.453 581.072 459.442 581.221 459.435 581.32C459.431 581.37 459.428 581.408 459.426 581.433C459.425 581.446 459.424 581.455 459.424 581.462C459.424 581.465 459.423 581.467 459.423 581.469C459.423 581.469 459.423 581.47 459.423 581.47C459.423 581.471 459.423 581.471 460.121 581.524C460.818 581.578 460.818 581.578 460.818 581.577C460.818 581.577 460.818 581.576 460.818 581.575C460.818 581.574 460.818 581.571 460.819 581.568C460.819 581.562 460.82 581.552 460.821 581.539C460.823 581.514 460.826 581.476 460.829 581.425C460.837 581.325 460.848 581.176 460.863 580.981C460.891 580.591 460.933 580.018 460.985 579.283C461.089 577.813 461.233 575.698 461.395 573.114C461.718 567.947 462.113 560.905 462.397 553.409C462.681 545.914 462.854 537.957 462.734 530.962C462.615 523.988 462.204 517.904 461.297 514.193L459.938 514.524Z" fill="black"/>
<path fill-rule="evenodd" clip-rule="evenodd" d="M422.736 392.684C423.886 392.265 424.982 391.651 425.982 390.799C433.53 384.369 430.293 374.667 425.725 369.616C421.158 364.565 393.214 366.58 406.396 389.979C406.451 390.012 406.508 390.046 406.565 390.08C408.039 394.769 406.796 398.792 405.305 403.618C404.697 405.586 404.047 407.688 403.524 410.024L417.505 409.022C421.347 403.804 422.804 398.545 422.736 392.684Z" fill="#F5B9AB"/>
<path d="M425.982 390.799L426.515 391.425L426.515 391.425L425.982 390.799ZM422.736 392.684L422.454 391.912C422.126 392.031 421.909 392.345 421.913 392.694L422.736 392.684ZM425.725 369.616L426.335 369.064L425.725 369.616ZM406.396 389.979L405.679 390.382C405.749 390.506 405.85 390.61 405.971 390.683L406.396 389.979ZM406.565 390.08L407.35 389.833C407.289 389.639 407.158 389.474 406.982 389.371L406.565 390.08ZM405.305 403.618L404.519 403.375L404.519 403.375L405.305 403.618ZM403.524 410.024L402.721 409.844C402.664 410.098 402.731 410.364 402.901 410.561C403.07 410.758 403.323 410.863 403.583 410.844L403.524 410.024ZM417.505 409.022L417.563 409.843C417.803 409.825 418.024 409.704 418.167 409.51L417.505 409.022ZM425.449 390.173C424.528 390.958 423.518 391.523 422.454 391.912L423.017 393.457C424.254 393.006 425.436 392.344 426.515 391.425L425.449 390.173ZM425.115 370.168C427.304 372.587 429.166 376.12 429.58 379.783C429.99 383.407 428.988 387.157 425.449 390.173L426.515 391.425C430.524 388.01 431.678 383.694 431.214 379.598C430.755 375.539 428.715 371.696 426.335 369.064L425.115 370.168ZM407.112 389.575C403.872 383.824 403.243 379.532 404.011 376.412C404.774 373.315 406.959 371.196 409.756 369.872C412.565 368.542 415.934 368.047 418.883 368.198C420.353 368.273 421.694 368.507 422.788 368.863C423.897 369.224 424.68 369.687 425.115 370.168L426.335 369.064C425.629 368.283 424.539 367.703 423.297 367.299C422.04 366.89 420.552 366.636 418.966 366.555C415.802 366.394 412.153 366.918 409.053 368.385C405.94 369.858 403.326 372.315 402.414 376.019C401.507 379.7 402.328 384.434 405.679 390.382L407.112 389.575ZM406.982 389.371C406.927 389.338 406.873 389.306 406.82 389.274L405.971 390.683C406.03 390.718 406.089 390.753 406.149 390.789L406.982 389.371ZM406.091 403.861C407.571 399.069 408.912 394.803 407.35 389.833L405.781 390.326C407.167 394.736 406.021 398.514 404.519 403.375L406.091 403.861ZM404.326 410.204C404.842 407.904 405.482 405.832 406.091 403.861L404.519 403.375C403.912 405.341 403.253 407.472 402.721 409.844L404.326 410.204ZM417.446 408.202L403.465 409.204L403.583 410.844L417.563 409.843L417.446 408.202ZM421.913 392.694C421.98 398.389 420.571 403.471 416.842 408.535L418.167 409.51C422.123 404.138 423.628 398.701 423.558 392.675L421.913 392.694Z" fill="black"/>
<path d="M403.888 375.849C401.7 378.893 404.056 386.41 405.795 388.29C391.389 380.297 400.509 362.262 404.954 365.551C405.678 358.883 413.329 356.53 418.545 362.169C431.622 351.609 432.31 369.603 427.694 372.34C423.079 375.076 417.479 372.47 414.573 373.882C411.667 375.293 409.873 383.84 408.932 379.096C407.99 374.352 406.622 372.044 403.888 375.849Z" fill="#00ADB5" stroke="black" stroke-width="1.64486"/>
<path d="M430.642 476.265C445.721 466.236 439.428 431.581 437.283 421.728C436.897 419.956 436.325 418.255 435.632 416.579C429.932 402.8 415.871 391.702 402.403 398.103C373.718 411.736 377.982 455.223 378.253 476.591L430.642 476.265Z" fill="#EEEEEE" stroke="black" stroke-width="1.64486" stroke-linejoin="round"/>
<path d="M475.997 429.372L463.895 414.603L423.116 443.133L409.936 416.604L392.87 443.133C392.87 443.133 411.358 471.848 420.75 471.014C437.866 469.493 475.997 429.372 475.997 429.372Z" fill="#EEEEEE"/>
<path d="M410.839 418.54L423.001 442.319L463.894 414.603L475.997 429.373C475.997 429.373 440.051 469.245 419.045 471.111C412.434 471.699 393.173 442.846 393.173 442.846" stroke="black" stroke-width="1.64486"/>
<path d="M467.918 411.938L463.125 415.015L475.158 430.26L478.942 427.194C482.969 423.932 483.607 418.031 480.37 413.984C477.356 410.214 471.981 409.331 467.918 411.938Z" fill="#F5B9AB" stroke="black" stroke-width="1.64486" stroke-linejoin="round"/>
<path d="M460.369 579.606L439.675 590.395L443.235 603.877L470.866 586.861L462.736 587.965L460.369 579.606Z" fill="#EEEEEE" stroke="black" stroke-width="1.39887" stroke-linejoin="round"/>
<path d="M123.724 456.274C130.491 444.055 136.888 427.673 153.612 432.154C161.559 434.283 167.734 446.129 167.249 453.662C166.846 459.909 168.581 467.8 162.133 471.69C157.069 474.746 150.668 474.312 146.674 469.582C135.333 456.149 156.29 446.737 166.683 448.792C180.867 451.597 197.304 486.937 184.949 498.098C174.356 507.668 167.387 492.982 174.786 484.272C185.194 472.019 194.768 471.63 206.872 484.735C216.322 494.968 213.48 513.028 205.855 522.529C204.271 524.503 198.344 538.315 196.913 536.93C182.79 523.266 207.81 503.134 221.713 505.996C237.687 509.285 253.813 512.795 264.371 525.439C270.049 532.238 280.529 556.563 278.515 547.936C275.995 537.141 273.576 522.327 278.05 511.575C279.382 508.376 283.386 498.057 280.005 508.073C276.523 518.389 273.216 527.394 271.799 537.637C271.484 539.916 274.446 543.15 275.457 545.083C276.313 546.721 269.649 544.617 268.853 544.534C261.977 543.82 255.693 546.468 249.802 549.759C244.544 552.697 238.526 558.21 234.561 556.25" stroke="#00ADB5" stroke-opacity="0.2" stroke-width="4" stroke-linecap="round" stroke-linejoin="round"/>
<path d="M1210.24 750.397C1218.2 746.281 1226.32 740.898 1233.43 735.394C1237.24 732.449 1241.34 729.923 1245.03 726.875C1245.54 726.445 1246.82 724.419 1247.59 725.083C1248.81 726.131 1249.99 727.95 1250.74 729.366C1252.9 733.479 1255.88 737.606 1258.94 741.069C1261.36 743.817 1263.33 746.137 1265.18 749.33C1266.18 751.076 1268.69 753.459 1268.51 755.4C1268.01 760.813 1262.95 765.826 1259.48 769.367C1254.38 774.57 1249.38 779.8 1243.32 783.799C1239.55 786.28 1235.31 787.59 1231.46 789.811C1227.92 791.857 1228.21 791.583 1224.84 788.609C1221.51 785.68 1219.45 782.502 1217.2 778.595C1216.02 776.562 1213.92 774.806 1212.29 773.125C1211.06 771.853 1210.61 769.68 1209.94 768.079C1209.24 766.399 1209.3 761.582 1207.77 760.579C1206.26 759.595 1204.52 757.434 1204.94 755.497C1205.29 753.916 1218.45 744.647 1207.46 754.994" stroke="#00ADB5" stroke-opacity="0.5" stroke-linecap="round" stroke-linejoin="round"/>
<path d="M1206.05 757.941C1209.05 759.396 1211.96 761.485 1214.93 762.85C1215.91 763.304 1217.6 763.219 1218.39 763.84C1220.54 765.52 1226.76 764.5 1229.4 764.742C1232.38 765.016 1240.55 769.104 1241.64 764.079C1243.7 754.634 1246.01 745.231 1248.06 735.824C1248.44 734.047 1247.92 732.292 1248.27 730.669C1249.35 725.729 1244.61 728.846 1243.01 729.772" stroke="#00ADB5" stroke-opacity="0.5" stroke-linecap="round" stroke-linejoin="round"/>
<path d="M839.805 69.8232C857.977 61.2806 873.445 48.7889 888.904 36.9114C901.054 27.5763 913.727 18.2772 926.864 9.92429C929.456 8.2761 933.233 5.12037 936.313 5.94018C939.365 6.75256 940.774 9.73711 943.052 11.3428C948.662 15.2971 953.496 20.3555 957.88 25.2497C962.705 30.6374 953.748 34.9214 947.948 39.4521C941.361 44.5985 935.022 49.8548 927.957 54.5361C921.242 58.9859 915.545 64.7205 909.285 69.6078C899.743 77.0561 890.702 84.8607 881.184 92.3128C875.519 96.749 869.196 100.561 863.701 105.113C861.775 106.708 859.917 108.739 857.759 110.129C856.026 111.246 854.31 107.891 853.834 107.276C850.055 102.396 843.553 99.4961 839.903 94.3579C837.608 91.1273 836.341 86.965 833.454 84.1034C832.076 82.7373 828.577 79.7068 830.636 77.2552C832.738 74.7521 837.951 73.0818 840.941 71.123C843.271 69.596 846.107 67.7154 848.68 66.5469C850.549 65.6978 852.457 64.3502 854.171 63.2848C858.684 60.4809 854.108 61.9759 851.154 63.1607" stroke="#00ADB5" stroke-opacity="0.5" stroke-linecap="round" stroke-linejoin="round"/>
<path d="M840.968 80.1045C850.743 84.1576 859.11 90.6701 866.27 97.2152C866.451 97.381 868.291 98.276 867.929 98.7241C867.23 99.5891 860.916 96.7445 860.315 96.456" stroke="#00ADB5" stroke-opacity="0.5" stroke-linecap="round" stroke-linejoin="round"/>
<path d="M852.432 71.3787C860.673 72.3862 865.228 75.5492 871.547 78.7716C874.362 80.207 877.258 81.4626 879.715 83.246C880.869 84.0834 881.608 85.2736 882.653 86.199C884.086 87.4673 877.848 85.0785 877.112 84.8053" stroke="#00ADB5" stroke-opacity="0.5" stroke-linecap="round" stroke-linejoin="round"/>
<path d="M865.621 64.1323C870.977 67.7902 876.373 71.3848 881.941 74.8479C884.056 76.1635 886.505 77.3141 888.262 78.9457C891.383 81.8422 887.291 78.0885 885.867 77.059" stroke="#00ADB5" stroke-opacity="0.5" stroke-linecap="round" stroke-linejoin="round"/>
<path d="M874.544 59.0745C878.662 60.7406 882.987 62.3179 886.324 64.813C887.693 65.8364 888.77 67.1028 890.257 68.0264C892.089 69.1641 893.639 70.5573 895.489 71.6553C898.125 73.219 898.484 73.7215 895.371 71.7372" stroke="#00ADB5" stroke-opacity="0.5" stroke-linecap="round" stroke-linejoin="round"/>
<path d="M886.19 51.5229C890.638 54.046 894.717 56.6574 898.273 59.9448C899.848 61.4007 901.037 63.1519 903.152 64.1673C905.089 65.0977 906.514 65.2696 904.32 63.6509" stroke="#00ADB5" stroke-opacity="0.5" stroke-linecap="round" stroke-linejoin="round"/>
<path d="M897.452 43.8948C901.384 46.0086 905.287 47.9032 908.251 50.861C909.608 52.215 910.603 53.8345 912.159 55.0492C915.321 57.5159 913.073 56.3456 910.769 54.6892" stroke="#00ADB5" stroke-opacity="0.5" stroke-linecap="round" stroke-linejoin="round"/>
<path d="M907.942 36.1138C913.324 40.0764 917.616 44.9429 923.016 48.8474C926.653 51.4765 921.515 47.1864 920.685 46.415" stroke="#00ADB5" stroke-opacity="0.5" stroke-linecap="round" stroke-linejoin="round"/>
<path d="M920.353 29.4719C925.659 27.2377 931.198 24.6625 934.492 20.286C935.4 19.0791 936.504 17.9934 936.99 16.6936C937.656 14.9086 937.469 15.6632 935.711 16.9669" stroke="#00ADB5" stroke-opacity="0.5" stroke-linecap="round" stroke-linejoin="round"/>
<path d="M927.742 34.1607C932.182 30.7083 937.135 26.9257 940.613 22.785C942.348 20.7198 945.471 18.0862 941.173 21.2737" stroke="#00ADB5" stroke-opacity="0.5" stroke-linecap="round" stroke-linejoin="round"/>
<path d="M939.76 39.0088C943.871 35.3953 947.547 32.0511 951.387 28.324C952.627 27.1198 956.143 25.3438 952.029 26.6498" stroke="#00ADB5" stroke-opacity="0.5" stroke-linecap="round" stroke-linejoin="round"/>
<path d="M937.07 37.7167C941.275 34.6433 946.041 31.0793 949.546 27.4005C950.481 26.4192 951.243 25.3573 952.114 24.3488C953.574 22.6596 953.58 23.1741 951.671 23.5446" stroke="#00ADB5" stroke-opacity="0.5" stroke-linecap="round" stroke-linejoin="round"/>
<path d="M850.581 84.2856C870.561 75.9016 877.636 58.4278 894.545 47.1003C896.601 45.7223 898.321 44.2541 900.642 43.1998C902.195 42.4947 904.055 42.0322 905.496 41.1911C906.375 40.678 913.769 35.7301 908.795 37.9892" stroke="#00ADB5" stroke-opacity="0.5" stroke-linecap="round" stroke-linejoin="round"/>
<path d="M842.314 80.7503C844.75 78.4127 846.904 76.4044 849.836 74.5827C850.317 74.284 851.012 74.1649 851.425 73.7915C852.244 73.0518 853.479 71.966 853.877 71.0856C855.447 67.6181 860.752 67.6326 863.849 65.6353C866.795 63.7352 869.642 61.8269 872.638 59.94C875.939 57.8612 877.566 56.1801 880.333 53.6802C882.875 51.3839 885.353 49.0714 888.012 46.8692C890.186 45.0676 893.458 43.2843 894.984 41.1193C896.706 38.6759 900.659 35.6575 903.829 35.7196C904.918 35.7409 912.54 38.627 907.551 36.7946" stroke="#00ADB5" stroke-opacity="0.5" stroke-linecap="round" stroke-linejoin="round"/>
<path d="M858.469 86.9875C873.678 79.2866 883.498 65.1106 894.595 53.99C898.682 49.894 904.13 46.8662 908.376 42.8158C910.191 41.0833 913.954 39.0378 909.842 39.5245" stroke="#00ADB5" stroke-opacity="0.5" stroke-linecap="round" stroke-linejoin="round"/>
<path d="M863.073 90.1758C876.982 82.2843 886.981 69.3801 897.769 58.8332C902.677 54.035 907.448 49.163 912.404 44.394C914.664 42.2197 918.3 40.6124 913.574 43.1088" stroke="#00ADB5" stroke-opacity="0.5" stroke-linecap="round" stroke-linejoin="round"/>
<path d="M867.264 96.3165C876.271 89.0384 883.783 81.4317 891.453 73.3207C896.117 68.3888 900.31 62.9625 905.616 58.3979C908.66 55.7789 911.133 52.8344 913.945 50.1042C915.078 49.0044 915.926 47.7759 917.085 46.6812C919.697 44.2154 917.812 46.3927 916.041 47.77" stroke="#00ADB5" stroke-opacity="0.5" stroke-linecap="round" stroke-linejoin="round"/>
<path d="M868.785 98.8937C873.27 95.2575 879.617 91.5302 882.888 87.0985C884.075 85.4895 887.001 81.5983 888.828 80.4906C891.242 79.0264 892.671 76.3264 894.531 74.5207C896.468 72.6404 898.364 70.8048 900.434 68.9908C902.376 67.2897 903.299 64.5824 905.623 63.0453C908.212 61.3329 909.686 58.9662 911.831 57.0279C913.688 55.3502 917.042 53.4517 919.246 52.0821C920.468 51.3233 921.379 50.3733 922.73 49.7598C925.468 48.5163 923.709 49.1928 921.334 49.3882" stroke="#00ADB5" stroke-opacity="0.5" stroke-linecap="round" stroke-linejoin="round"/>
<path d="M919.86 30.7014C923.104 31.0359 927.158 31.0611 930 32.1851C931.834 32.9105 933.414 33.6682 930.074 32.3472" stroke="#00ADB5" stroke-opacity="0.5" stroke-linecap="round" stroke-linejoin="round"/>
<path d="M923.957 25.8247C928.586 26.2927 931.799 27.0385 935.404 28.6421C937.761 29.6906 937.404 29.3671 934.934 28.3805" stroke="#00ADB5" stroke-opacity="0.5" stroke-linecap="round" stroke-linejoin="round"/>
<path d="M930.37 20.6492C934.207 22.0428 937.887 23.7028 941.896 24.8413C944.255 25.5108 942.957 25.5909 941.139 25.0597" stroke="#00ADB5" stroke-opacity="0.5" stroke-linecap="round" stroke-linejoin="round"/>
<path d="M934.17 16.6614C938.256 17.756 942.006 18.8817 945.694 20.4212C947.376 21.1233 945.727 21.3655 944.458 20.7871" stroke="#00ADB5" stroke-opacity="0.5" stroke-linecap="round" stroke-linejoin="round"/>
<path d="M922.191 28.8885C925.877 25.4137 929.551 22.1008 932.957 18.5808C933.924 17.5808 939.752 11.9634 937.177 14.7927" stroke="#00ADB5" stroke-opacity="0.5" stroke-linecap="round" stroke-linejoin="round"/>
<path d="M924.849 33.9664C929.5 30.4829 936.159 25.7873 938.151 21.1381C938.737 19.7698 939.793 18.3497 941.198 17.2964C942.622 16.2281 944.035 15.6595 941.883 17.4322" stroke="#00ADB5" stroke-opacity="0.5" stroke-linecap="round" stroke-linejoin="round"/>
<path d="M921.468 34.2446C926.526 29.8296 930.749 26.7699 933.969 21.6683C934.805 20.3434 935.709 19.2217 936.933 18.1157C938.23 16.9437 940.02 15.7817 937.535 17.898" stroke="#00ADB5" stroke-opacity="0.5" stroke-linecap="round" stroke-linejoin="round"/>
<path d="M937.969 34.2922C939.9 35.1192 941.847 35.8679 943.884 36.5079C944.725 36.7722 943.72 36.1909 943.357 36.1189" stroke="#00ADB5" stroke-opacity="0.5" stroke-linecap="round" stroke-linejoin="round"/>
<path d="M942.749 28.6025C942.876 28.6828 950.262 33.3983 948.988 32.3048" stroke="#00ADB5" stroke-opacity="0.5" stroke-linecap="round" stroke-linejoin="round"/>
<path d="M947.885 26.0178C949.493 27.2107 954.445 30.6714 952.678 29.6229" stroke="#00ADB5" stroke-opacity="0.5" stroke-linecap="round" stroke-linejoin="round"/>
<path d="M935.245 36.7861C938.544 34.2147 945.711 29.0492 947.795 25.431C948.616 24.0051 951.755 21.9395 948.771 24.1075" stroke="#00ADB5" stroke-opacity="0.5" stroke-linecap="round" stroke-linejoin="round"/>
<path d="M935.528 37.4113C935.787 37.5622 940.81 41.8712 942.363 39.3352C943.155 38.0408 944.187 36.3548 945.806 35.5089C948.647 34.0248 949.66 30.2392 952.539 28.9319C955.805 27.4487 955.78 25.5776 952.98 25.2265C951.879 25.0886 953.027 23.1859 951.827 23.4598C950.728 23.7105 950.2 23.4536 948.966 23.7672" stroke="#00ADB5" stroke-opacity="0.5" stroke-linecap="round" stroke-linejoin="round"/>
<path d="M919.576 30.0765C921.116 32.8683 921.334 33.9186 924.321 34.8204C925.127 35.0638 926.306 34.469 926.917 34.6609C928.125 35.0406 930.656 34.7679 931.745 33.7112C933.934 31.5864 934.813 30.2748 937.922 28.7833C939.883 27.8424 941.618 25.9461 942.678 24.4166C943.843 22.7357 945.711 21.3581 946.929 19.6652C947.448 18.9444 944.259 17.5945 944.39 16.4332C944.427 16.1039 940.355 16.5502 939.716 16.3493C938.941 16.106 938.631 15.6756 938.334 15.0218C937.9 14.067 936.703 15.4469 935.143 15.7167" stroke="#00ADB5" stroke-opacity="0.5" stroke-linecap="round" stroke-linejoin="round"/>
<path d="M846.409 75.8735C850.84 76.77 854.621 78.1421 858.507 79.6943C861.88 81.0419 865.838 81.518 869.196 82.8143C871.586 83.7372 873.857 86.2009 875.493 87.8029C876.038 88.3366 876.429 88.8494 876.781 89.4805C877.587 90.9282 877.048 87.2703 876.997 86.8685" stroke="#00ADB5" stroke-opacity="0.5" stroke-linecap="round" stroke-linejoin="round"/>
<path d="M895.052 42.4707C896.184 43.4107 900.547 48.8115 900.148 44.4294" stroke="#00ADB5" stroke-opacity="0.5" stroke-linecap="round" stroke-linejoin="round"/>
<line y1="963.5" x2="1440" y2="963.5" stroke="#EEEEEE" stroke-opacity="0.1"/>
</svg>
